<svg xmlns="http://www.w3.org/2000/svg" width="398" height="398" viewBox="0 0 398 398"><path d="M82.076,381.105a80.9,80.9,0,0,1-30.946-6.1L75.1,350.791a52.643,52.643,0,0,0,6.975.464,51.711,51.711,0,0,0,20.441-4.171A52.315,52.315,0,0,0,119.2,335.71a53.187,53.187,0,0,0,15.381-37.529,54.392,54.392,0,0,0-.465-7.036l30.014-30.33V298.2a84.483,84.483,0,0,1-1.686,16.7,83.1,83.1,0,0,1-34.52,52.017,81.2,81.2,0,0,1-45.851,14.188Zm233.858-54.743a81.875,81.875,0,0,1-16.543-1.685,81.181,81.181,0,0,1-29.35-12.479,83,83,0,0,1-34.517-52.057,84.611,84.611,0,0,1,0-33.426,83.015,83.015,0,0,1,34.516-52.052,81.347,81.347,0,0,1,98.4,5.039V85.093l-39.33,9L368.287,54.51l.156-.036v-.122l29.548-29.86V65.9c.012.342.012.688,0,1.028v176.5a84.5,84.5,0,0,1-1.682,16.707,83.1,83.1,0,0,1-34.518,52.031,81.191,81.191,0,0,1-45.857,14.193Zm0-135.992a51.743,51.743,0,0,0-20.45,4.171,52.319,52.319,0,0,0-16.7,11.375,53.385,53.385,0,0,0,0,75.051,52.326,52.326,0,0,0,16.694,11.373,51.726,51.726,0,0,0,20.441,4.172h.007a51.7,51.7,0,0,0,20.44-4.171,52.313,52.313,0,0,0,16.692-11.375,53.379,53.379,0,0,0-.017-75.036,52.369,52.369,0,0,0-16.684-11.374A51.771,51.771,0,0,0,315.934,190.369ZM1.067,311.582v0a84.7,84.7,0,0,1,.6-30.124,83.01,83.01,0,0,1,34.516-52.051,81.1,81.1,0,0,1,45.884-14.163h.007a82.091,82.091,0,0,1,13.262,1.077L63.444,248.548a52.243,52.243,0,0,0-9.935,5.091,53.138,53.138,0,0,0-20.564,25.729L1.068,311.581ZM134.585,176.657V121.1a15.188,15.188,0,0,1,0-2.32V51.948a15.084,15.084,0,0,1,3.232-9.32,14.81,14.81,0,0,1,8.281-5.242L309.4,0,270.222,39.591,164.133,63.882v37.367L222.41,87.907l-39.174,39.587-19.1,4.373V146.8l-29.547,29.858Z" transform="translate(0 16.895)"/><line y1="322.446" x2="320.897" transform="translate(31.107 33.585)" fill="none" stroke="#000" stroke-linecap="round" stroke-width="36"/><path d="M205.573,377.552a14.813,14.813,0,0,1-14.813-14.813V118.44A14.813,14.813,0,0,1,202.3,103.993L436.767,50.875a14.813,14.813,0,0,1,18.081,14.447V308.417a14.813,14.813,0,1,1-29.625,0V83.868L220.385,130.281V362.739a14.813,14.813,0,0,1-14.813,14.813Z" transform="translate(-56.858 -50.51)" opacity="0"/></svg>